<svg width="20" height="20" viewBox="0 0 20 20" version="1.1" xmlns="http://www.w3.org/2000/svg" xmlns:xlink="http://www.w3.org/1999/xlink">
    <title>Audio</title>
    <g fill="#fff">
      <path class="speaker" d="M9.644,3.299 L5.111,7.111 L2,7.111 L2,13.111 L5.111,13.111 L9.644,16.922 L10,17.222 L10,3 L9.644,3.299 L9.644,3.299 Z M9,15.075 L5.476,12.111 L3,12.111 L3,8.111 L5.476,8.111 L9,5.147 L9,15.075 L9,15.075 Z"></path>
      <path class="low-vol" d="M14.468,10.111 C14.468,8.557 13.569,7.171 12.204,6.56 C11.952,6.447 11.656,6.56 11.544,6.812 C11.431,7.064 11.544,7.36 11.796,7.473 C12.801,7.922 13.468,8.952 13.468,10.111 C13.468,11.27 12.801,12.299 11.796,12.749 C11.544,12.862 11.431,13.158 11.544,13.41 C11.656,13.662 11.952,13.775 12.204,13.662 C13.569,13.051 14.468,11.665 14.468,10.111"></path>
      <path class="high-vol" d="M13.045,4.407 C12.933,4.659 13.046,4.955 13.298,5.068 C15.224,5.929 16.5,7.896 16.5,10.111 C16.5,12.325 15.224,14.293 13.298,15.154 C13.046,15.267 12.933,15.563 13.045,15.815 C13.158,16.067 13.454,16.18 13.706,16.067 C15.992,15.044 17.5,12.719 17.5,10.111 C17.5,7.502 15.992,5.177 13.706,4.154 C13.454,4.042 13.158,4.155 13.045,4.407 Z"></path>
  </g>
</svg>