<svg xmlns="http://www.w3.org/2000/svg" width="20px" height="20px" viewBox="0 0 16 16" fill="#444">
	<path d="M8.3,6C8.2,6,8.1,6,8,6C7.9,6,7.8,6,7.7,6c-0.5,0.1-1,0.4-1.3,0.8C6.1,7.2,6,7.7,6.1,8.3c0.1,0.5,0.4,1,0.8,1.3 c0.4,0.3,1,0.4,1.5,0.4c1.1-0.2,1.8-1.2,1.7-2.3C9.9,6.8,9.2,6.1,8.3,6z"></path>
	<path d="M11.3,1.3H4.7c-1.8,0-3.3,1.5-3.3,3.3v6.7c0,1.8,1.5,3.3,3.3,3.3h6.7c1.8,0,3.3-1.5,3.3-3.3V4.7 C14.7,2.8,13.2,1.3,11.3,1.3z M8.5,11.3c-0.2,0-0.3,0-0.5,0c-0.7,0-1.4-0.2-2-0.7c-0.7-0.5-1.2-1.3-1.3-2.2C4.6,7.6,4.8,6.7,5.4,6 c0.5-0.7,1.3-1.2,2.2-1.3c0.3,0,0.7,0,1,0C10,4.9,11.1,6,11.3,7.5v0C11.6,9.3,10.3,11,8.5,11.3z M11.7,5.1c-0.4,0-0.8-0.3-0.8-0.8 c0-0.4,0.3-0.8,0.8-0.8c0.4,0,0.8,0.3,0.8,0.8C12.4,4.7,12.1,5.1,11.7,5.1z"></path>
</svg>