<?xml version="1.0" encoding="utf-8"?>
<svg version="1.1" id="LAB" xmlns="http://www.w3.org/2000/svg" xmlns:xlink="http://www.w3.org/1999/xlink" x="0px" y="0px"
	 viewBox="0 0 24 24" style="enable-background:new 0 0 24 24;" xml:space="preserve">
<style type="text/css">
	.st0{fill:#FFFFFF;}
</style>
<rect width="24" height="24"/>
<g>
	<g id="Group_11977">
		<path id="Path_13920" class="st0" d="M13.1,19.9l-0.9-4.9c-0.1-0.5,0.2-0.9,0.7-1c0.4-0.1,0.7,0.1,0.9,0.4l2.5,4.3l-0.7,0.4
			l-2.5-4.3c0,0-0.1-0.1-0.1,0c0,0-0.1,0.1,0,0.1l0.9,4.9L13.1,19.9z M10.9,19.9l-0.8-0.1l0.9-4.9c0,0,0-0.1-0.1-0.1
			c0,0-0.1,0-0.1,0l-2.5,4.3l-0.7-0.4l2.5-4.3c0.2-0.4,0.8-0.5,1.2-0.3c0.3,0.2,0.5,0.5,0.4,0.9L10.9,19.9z M17.9,17.4l-3.8-3.2
			c-0.4-0.3-0.4-0.8-0.1-1.2c0.2-0.3,0.6-0.4,1-0.3l4.7,1.7l-0.3,0.7l-4.7-1.7c0,0-0.1,0-0.1,0c0,0,0,0.1,0,0.1l3.8,3.2L17.9,17.4z
			 M6.1,17.4l-0.5-0.6l3.8-3.2c0,0,0-0.1,0-0.1c0,0-0.1,0-0.1,0l-4.7,1.7l-0.3-0.7L9,12.8c0.4-0.2,0.9,0.1,1.1,0.5
			c0.1,0.3,0,0.7-0.3,0.9L6.1,17.4z M15,12.3c-0.5,0-0.9-0.4-0.9-0.8c0-0.4,0.2-0.7,0.6-0.8L19.4,9l0.3,0.7L15,11.4
			c0,0-0.1,0.1-0.1,0.1c0,0,0,0.1,0.1,0.1l5,0v0.8L15,12.3L15,12.3z M9,12.3L9,12.3l-5,0v-0.8l5,0l0,0c0,0,0.1,0,0.1-0.1
			c0,0,0-0.1-0.1-0.1L4.3,9.7L4.6,9l4.7,1.7c0.4,0.2,0.7,0.6,0.5,1.1C9.6,12.1,9.3,12.3,9,12.3 M14,10.5c-0.5,0-0.9-0.4-0.9-0.9
			c0-0.1,0-0.3,0.1-0.4l2.5-4.3l0.7,0.4l-2.5,4.3c0,0,0,0.1,0,0.1c0,0,0.1,0,0.1,0l3.8-3.2l0.5,0.6l-3.8,3.2
			C14.4,10.4,14.2,10.5,14,10.5 M10,10.5c-0.2,0-0.4-0.1-0.5-0.2L5.7,7.1l0.5-0.6L10,9.7c0,0,0.1,0,0.1,0c0,0,0-0.1,0-0.1L7.6,5.3
			l0.7-0.4l2.5,4.3c0.2,0.4,0.1,0.9-0.3,1.2C10.3,10.5,10.2,10.5,10,10.5 M12,9.8c-0.4,0-0.8-0.3-0.8-0.7l-0.9-4.9l0.8-0.1l0.9,4.9
			C11.9,9,12,9,12,9c0,0,0.1,0,0.1-0.1l0.9-4.9l0.8,0.1l-0.9,4.9C12.8,9.5,12.4,9.8,12,9.8"/>
	</g>
</g>
</svg>
